<svg width="189" height="25" viewBox="0 0 189 25" fill="none" xmlns="http://www.w3.org/2000/svg">
<path d="M10.2385 24.5C8.93928 24.5 7.67685 24.2449 6.48796 23.7419C5.34023 23.2567 4.31015 22.5626 3.42638 21.6781C2.54261 20.7943 1.8478 19.7643 1.36253 18.6173C0.859624 17.4276 0.604492 16.1659 0.604492 14.866C0.604492 13.5668 0.859624 12.3051 1.36253 11.1155C1.8478 9.96779 2.54261 8.93844 3.42638 8.05394C4.31015 7.17017 5.34023 6.47609 6.48796 5.99083C7.67685 5.48792 8.93928 5.23279 10.2385 5.23279V9.97367C7.54083 9.97367 5.34538 12.1684 5.34538 14.866C5.34538 17.5644 7.54083 19.7591 10.2385 19.7591C12.9361 19.7591 15.1315 17.5644 15.1315 14.866H19.8724C19.8724 16.1659 19.6173 17.4276 19.1144 18.6173C18.6291 19.7643 17.9343 20.7943 17.0505 21.6781C16.1668 22.5626 15.1367 23.2567 13.989 23.7419C12.8001 24.2449 11.5376 24.5 10.2385 24.5Z" fill="black"/>
<path d="M24.605 14.866H19.8634V5.24089H10.2383V0.5H24.605V14.866Z" fill="black"/>
<path d="M144.2 18.0754C143.886 17.7997 143.476 17.6615 142.971 17.6615C142.48 17.6615 142.078 17.7997 141.764 18.0754C141.45 18.3511 141.293 18.7342 141.293 19.2246C141.293 19.6842 141.45 20.0518 141.764 20.3275C142.078 20.6032 142.48 20.7414 142.971 20.7414C143.461 20.7414 143.867 20.6032 144.189 20.3275C144.511 20.0518 144.672 19.6842 144.672 19.2246C144.672 18.7342 144.514 18.3511 144.2 18.0754ZM157.686 17.5578C157.165 17.9644 156.422 18.1673 155.456 18.1673H151.526V13.4559H155.456C156.437 13.4559 157.183 13.6544 157.697 14.0529C158.211 14.4514 158.467 15.0337 158.467 15.7998C158.467 16.566 158.207 17.152 157.686 17.5578ZM151.526 6.81288H155.342C156.092 6.81288 156.686 7.00846 157.123 7.39887C157.559 7.79003 157.777 8.32235 157.777 8.99657C157.777 9.67079 157.559 10.2031 157.123 10.5943C156.686 10.9847 156.092 11.1795 155.342 11.1795H151.526V6.81288ZM158.583 12.1684C159.18 11.8163 159.643 11.3405 159.973 10.7435C160.302 10.1458 160.467 9.4561 160.467 8.67453C160.467 7.83194 160.26 7.09301 159.846 6.45702C159.432 5.82103 158.846 5.32694 158.088 4.97402C157.33 4.62184 156.453 4.44611 155.456 4.44611H148.837V20.5341H155.572C157.41 20.5341 158.804 20.1628 159.755 19.4195C160.704 18.6769 161.179 17.585 161.179 16.1447C161.179 15.1484 160.961 14.3139 160.524 13.6389C160.088 12.9654 159.44 12.475 158.583 12.1684ZM165.114 20.5341H167.804V4.44611H165.114V20.5341ZM184.76 15.4668C184.307 16.3322 183.669 17.0027 182.841 17.4777C182.013 17.9526 181.055 18.1901 179.968 18.1901C178.88 18.1901 177.923 17.9526 177.095 17.4777C176.267 17.0027 175.623 16.3366 175.165 15.4778C174.704 14.6198 174.475 13.6242 174.475 12.4897C174.475 11.356 174.708 10.3568 175.176 9.49066C175.643 8.62527 176.29 7.95472 177.118 7.47975C177.945 7.00478 178.895 6.7673 179.968 6.7673C181.055 6.7673 182.013 7.00846 182.841 7.49078C183.669 7.97384 184.307 8.64806 184.76 9.51345C185.212 10.3796 185.438 11.3722 185.438 12.4897C185.438 13.6088 185.212 14.6006 184.76 15.4668ZM187.139 8.215C186.434 6.95846 185.457 5.98205 184.208 5.2843C182.959 4.58728 181.546 4.23877 179.968 4.23877C178.389 4.23877 176.972 4.58728 175.716 5.2843C174.46 5.98205 173.479 6.95846 172.774 8.215C172.069 9.47154 171.716 10.8965 171.716 12.4897C171.716 14.0838 172.065 15.505 172.763 16.7534C173.46 18.0026 174.432 18.9798 175.681 19.6842C176.93 20.3893 178.359 20.7414 179.968 20.7414C181.546 20.7414 182.959 20.3929 184.208 19.6952C185.457 18.9982 186.434 18.0218 187.139 16.7652C187.843 15.5087 188.196 14.0838 188.196 12.4897C188.196 10.8965 187.843 9.47154 187.139 8.215ZM49.0819 15.4668C48.6297 16.3322 47.99 17.0027 47.1629 17.4777C46.3357 17.9526 45.3777 18.1901 44.2903 18.1901C43.2014 18.1901 42.2441 17.9526 41.4169 17.4777C40.5898 17.0027 39.9457 16.3366 39.4862 15.4778C39.0266 14.6198 38.7965 13.6242 38.7965 12.4897C38.7965 11.356 39.0303 10.3568 39.4979 9.49066C39.9648 8.62527 40.6126 7.95472 41.4397 7.47975C42.2676 7.00478 43.2168 6.7673 44.2903 6.7673C45.3777 6.7673 46.3357 7.00846 47.1629 7.49078C47.99 7.97384 48.6297 8.64806 49.0819 9.51345C49.5341 10.3796 49.7605 11.3722 49.7605 12.4897C49.7605 13.6088 49.5341 14.6006 49.0819 15.4668ZM48.5305 5.2843C47.2813 4.58728 45.8681 4.23877 44.2903 4.23877C42.7117 4.23877 41.2941 4.58728 40.0376 5.2843C38.7818 5.98205 37.8002 6.95846 37.0959 8.215C36.3908 9.47154 36.0386 10.8965 36.0386 12.4897C36.0386 14.0838 36.3871 15.505 37.0841 16.7534C37.7818 18.0026 38.7546 18.9798 40.003 19.6842C41.2522 20.3893 42.6808 20.7414 44.2903 20.7414C45.8681 20.7414 47.2813 20.3929 48.5305 19.6952C49.7789 18.9982 50.7561 18.0218 51.4612 16.7652C52.1655 15.5087 52.5177 14.0838 52.5177 12.4897C52.5177 10.8965 52.1655 9.47154 51.4612 8.215C50.7561 6.95846 49.7789 5.98205 48.5305 5.2843ZM65.9331 14.4448C65.9331 15.6395 65.6147 16.5748 64.978 17.2505C64.342 17.9262 63.4494 18.2636 62.3024 18.2636C61.1554 18.2636 60.2518 17.9262 59.5915 17.2505C58.9313 16.5748 58.6012 15.6395 58.6012 14.4448V4.14246H55.8432V14.4212C55.8432 15.6947 56.1101 16.8181 56.6447 17.7924C57.1785 18.7673 57.9372 19.5217 58.9195 20.0555C59.9011 20.59 61.0297 20.8576 62.3024 20.8576C63.5751 20.8576 64.6949 20.59 65.6618 20.0555C66.6286 19.5217 67.3749 18.7673 67.9013 17.7924C68.4278 16.8181 68.691 15.6947 68.691 14.4212V4.14246H65.9331V14.4448ZM71.9165 6.6651H76.6545V20.6451H79.4366V6.6651H84.1753V4.14246H71.9165V6.6651ZM90.3242 4.14246H87.5656V20.6451H97.4201V18.1225H90.3242V4.14246ZM100.81 20.6451H103.569V4.14246H100.81V20.6451ZM114.55 14.8514L109.811 4.14246H106.841V4.35494L114.031 20.7863H114.974L122.094 4.35494V4.14246H119.053L114.55 14.8514ZM125.343 5.77912V20.6451H135.527V18.1225H128.101V13.1015H135.527V10.6024H128.101V6.6651H135.527V4.14246H125.343V5.77912Z" fill="#060912"/>
</svg>
